<?xml version="1.0" encoding="UTF-8"?>
<!DOCTYPE svg PUBLIC "-//W3C//DTD SVG 1.1//EN" "http://www.w3.org/Graphics/SVG/1.1/DTD/svg11.dtd">
<!-- Creator: CorelDRAW (Evaluation Version) -->
<svg xmlns="http://www.w3.org/2000/svg" xml:space="preserve" width="50.5496mm" height="61.46mm" version="1.1" style="shape-rendering:geometricPrecision; text-rendering:geometricPrecision; image-rendering:optimizeQuality; fill-rule:evenodd; clip-rule:evenodd"
viewBox="0 0 1862.79 2264.84"
 xmlns:xlink="http://www.w3.org/1999/xlink"
 xmlns:xodm="http://www.corel.com/coreldraw/odm/2003">
 <defs>
  <style type="text/css">
   <![CDATA[
    .str1 {stroke:#A8AAAD;stroke-width:7.37;stroke-miterlimit:22.9256}
    .str5 {stroke:#828487;stroke-width:7.37;stroke-miterlimit:22.9256}
    .str7 {stroke:#FFF200;stroke-width:7.37;stroke-miterlimit:22.9256}
    .str4 {stroke:#F5842A;stroke-width:7.37;stroke-miterlimit:22.9256}
    .str3 {stroke:#ED282E;stroke-width:7.37;stroke-miterlimit:22.9256}
    .str0 {stroke:#00A755;stroke-width:7.37;stroke-miterlimit:22.9256}
    .str6 {stroke:#828487;stroke-width:2.81;stroke-miterlimit:22.9256}
    .str2 {stroke:#00A755;stroke-width:2.81;stroke-miterlimit:22.9256}
    .fil3 {fill:none;fill-rule:nonzero}
    .fil8 {fill:#A8AAAD}
    .fil6 {fill:#828487}
    .fil1 {fill:#454546}
    .fil9 {fill:#FFF200}
    .fil5 {fill:#F5842A}
    .fil4 {fill:#ED282E}
    .fil0 {fill:#00A755}
    .fil7 {fill:#828487;fill-rule:nonzero}
    .fil2 {fill:#00A755;fill-rule:nonzero}
   ]]>
  </style>
 </defs>
 <g id="Layer_x0020_1">
  <metadata id="CorelCorpID_0Corel-Layer"/>
  <g id="_1074401624">
   <polygon class="fil0 str0" points="135.35,640.24 7.29,568.37 931.39,4.32 1855.49,568.37 1855.49,1696.47 1727.43,1624.61 1727.43,640.24 931.39,154.35 "/>
   <polygon class="fil0 str0" points="7.29,1696.47 7.29,568.37 135.35,640.24 135.35,1624.61 931.39,2110.49 1727.43,1624.61 1855.49,1696.47 931.39,2260.52 "/>
  </g>
  <g id="_1081512448">
   <rect class="fil1 str1" x="249.77" y="535.81" width="1376.89" height="1188.62" rx="152.99" ry="179.84"/>
   <path class="fil2" d="M414 966.71c-7.36,-0.2 -14.33,-0.8 -21.29,-1.79 -6.96,-1.19 -12.53,-2.79 -16.71,-4.78l0 -16.91c4.58,2.19 10.34,3.98 17.31,5.57 6.96,1.59 13.93,2.39 20.7,2.59l0 -40.19c-8.76,-2.39 -15.92,-5.17 -21.49,-8.16 -5.57,-3.18 -9.75,-6.96 -12.33,-11.54 -2.79,-4.58 -4.18,-9.95 -4.18,-16.11 0,-6.57 1.59,-12.14 4.58,-16.72 3.18,-4.58 7.56,-8.36 13.33,-10.94 5.77,-2.79 12.34,-4.38 20.1,-4.78l0 -17.51 12.73 0 0 17.31c6.96,0.2 13.53,0.99 19.3,2.39 5.77,1.39 10.94,2.98 15.72,4.97l-5.37 14.73c-4.18,-1.79 -8.95,-3.18 -13.93,-4.38 -5.17,-1.39 -10.35,-2.19 -15.72,-2.59l0 39.99c8.76,2.59 16.12,5.17 21.89,8.16 5.77,2.79 10.15,6.17 13.13,10.35 2.98,4.18 4.57,9.75 4.57,16.31 0,9.35 -3.38,16.91 -10.34,22.69 -6.96,5.77 -16.72,9.15 -29.25,10.54l0 22.09 -12.73 0 0 -21.29zm12.73 -16.31c7.76,-0.8 13.53,-2.59 17.11,-5.37 3.58,-2.98 5.37,-6.57 5.37,-11.14 0,-3.38 -0.6,-5.97 -1.99,-8.16 -1.39,-2.19 -3.58,-4.18 -6.96,-5.77 -3.18,-1.59 -7.76,-3.18 -13.53,-4.57l0 35.02zm-12.73 -92.13c-4.78,0.2 -8.76,0.99 -11.74,2.39 -2.98,1.39 -5.37,3.38 -6.96,5.57 -1.39,2.19 -2.19,4.78 -2.19,7.76 0,3.38 0.6,6.36 1.79,8.95 1.39,2.39 3.58,4.38 6.57,6.17 2.98,1.59 7.16,2.98 12.54,4.38l0 -35.22z"/>
   <path id="_1" class="fil3 str2" d="M414 966.71c-7.36,-0.2 -14.33,-0.8 -21.29,-1.79 -6.96,-1.19 -12.53,-2.79 -16.71,-4.78l0 -16.91c4.58,2.19 10.34,3.98 17.31,5.57 6.96,1.59 13.93,2.39 20.7,2.59l0 -40.19c-8.76,-2.39 -15.92,-5.17 -21.49,-8.16 -5.57,-3.18 -9.75,-6.96 -12.33,-11.54 -2.79,-4.58 -4.18,-9.95 -4.18,-16.11 0,-6.57 1.59,-12.14 4.58,-16.72 3.18,-4.58 7.56,-8.36 13.33,-10.94 5.77,-2.79 12.34,-4.38 20.1,-4.78l0 -17.51 12.73 0 0 17.31c6.96,0.2 13.53,0.99 19.3,2.39 5.77,1.39 10.94,2.98 15.72,4.97l-5.37 14.73c-4.18,-1.79 -8.95,-3.18 -13.93,-4.38 -5.17,-1.39 -10.35,-2.19 -15.72,-2.59l0 39.99c8.76,2.59 16.12,5.17 21.89,8.16 5.77,2.79 10.15,6.17 13.13,10.35 2.98,4.18 4.57,9.75 4.57,16.31 0,9.35 -3.38,16.91 -10.34,22.69 -6.96,5.77 -16.72,9.15 -29.25,10.54l0 22.09 -12.73 0 0 -21.29zm12.73 -16.31c7.76,-0.8 13.53,-2.59 17.11,-5.37 3.58,-2.98 5.37,-6.57 5.37,-11.14 0,-3.38 -0.6,-5.97 -1.99,-8.16 -1.39,-2.19 -3.58,-4.18 -6.96,-5.77 -3.18,-1.59 -7.76,-3.18 -13.53,-4.57l0 35.02zm-12.73 -92.13c-4.78,0.2 -8.76,0.99 -11.74,2.39 -2.98,1.39 -5.37,3.38 -6.96,5.57 -1.39,2.19 -2.19,4.78 -2.19,7.76 0,3.38 0.6,6.36 1.79,8.95 1.39,2.39 3.58,4.38 6.57,6.17 2.98,1.59 7.16,2.98 12.54,4.38l0 -35.22z"/>
   <rect class="fil4 str3" x="525.15" y="875.82" width="654.72" height="87.11"/>
   <rect class="fil5 str4" x="376.22" y="1066.9" width="168.6" height="70.25"/>
   <rect class="fil6 str5" x="612.72" y="1062.69" width="809.27" height="70.25"/>
   <path class="fil7" d="M440.55 1386.32c-8.16,-0.2 -15.12,-1.39 -21.09,-3.58 -5.77,-2.19 -10.35,-5.77 -13.53,-10.54 -3.18,-4.58 -4.78,-10.55 -4.78,-17.51l0 -29.25c0,-4.58 -0.99,-8.16 -2.79,-10.75 -1.79,-2.79 -4.58,-4.78 -8.16,-5.97 -3.58,-1.39 -7.96,-1.99 -13.33,-1.99l0 -14.52c5.37,-0.2 9.75,-0.8 13.33,-1.99 3.58,-1.19 6.36,-3.18 8.16,-5.77 1.79,-2.79 2.79,-6.37 2.79,-10.75l0 -29.45c0,-6.96 1.59,-12.93 4.97,-17.51 3.38,-4.58 7.96,-8.16 13.93,-10.55 5.97,-2.19 12.73,-3.38 20.49,-3.38l0 14.32c-4.58,0.2 -8.36,0.8 -11.74,2.19 -3.38,1.39 -5.97,3.38 -7.76,5.97 -1.79,2.59 -2.59,6.17 -2.59,10.55l0 28.65c0,6.77 -1.79,12.14 -5.37,16.12 -3.58,4.18 -8.95,6.76 -16.32,8.16l0 1.19c7.36,1.39 12.93,3.98 16.32,7.96 3.58,4.18 5.37,9.55 5.37,16.32l0 29.25c0,4.18 0.8,7.76 2.59,10.35 1.79,2.79 4.18,4.78 7.56,5.97 3.38,1.39 7.36,1.99 11.94,2.19l0 14.32z"/>
   <path id="_1_35" class="fil7" d="M515.96 1215.01c-1.19,4.57 -2.79,9.75 -4.58,15.12 -1.79,5.37 -3.98,10.94 -6.17,16.32 -2.19,5.37 -4.18,10.34 -6.37,15.12l-13.13 0c1.39,-4.97 2.59,-10.54 3.98,-16.31 1.19,-5.77 2.39,-11.34 3.38,-16.91 1.19,-5.77 2.19,-10.94 2.79,-15.52l18.7 0 1.39 2.19zm-36.81 0c-1.19,4.57 -2.79,9.75 -4.58,15.12 -1.79,5.37 -3.98,10.94 -6.17,16.32 -2.19,5.37 -4.18,10.34 -6.36,15.12l-12.74 0c0.99,-3.78 1.79,-7.76 2.79,-11.94 0.99,-4.18 1.79,-8.56 2.59,-12.93 0.99,-4.18 1.79,-8.36 2.39,-12.54 0.8,-4.18 1.39,-7.96 1.99,-11.34l18.7 0 1.39 2.19z"/>
   <path id="_2" class="fil7" d="M584.41 1261.76l-26.86 0 0 93.12 -17.51 0 0 -93.12 -18.7 0 0 -8.16 18.7 -5.97 0 -6.17c0,-9.15 1.39,-16.52 3.98,-22.29 2.79,-5.77 6.77,-9.95 11.94,-12.53 5.17,-2.59 11.34,-3.98 18.71,-3.98 4.18,0 8.16,0.4 11.54,1.19 3.58,0.6 6.57,1.39 9.15,2.39l-4.58 13.73c-2.19,-0.6 -4.58,-1.39 -7.36,-1.99 -2.79,-0.6 -5.57,-0.99 -8.55,-0.99 -5.77,0 -10.15,1.99 -12.93,5.77 -2.98,3.98 -4.38,10.15 -4.38,18.51l0 6.96 26.86 0 0 13.53z"/>
   <path id="_3" class="fil7" d="M696.43 1301.36c0,8.95 -1.19,16.72 -3.58,23.68 -2.19,6.77 -5.57,12.53 -9.95,17.31 -4.18,4.78 -9.55,8.36 -15.72,10.75 -6.17,2.59 -12.93,3.78 -20.5,3.78 -6.96,0 -13.53,-1.19 -19.5,-3.78 -5.97,-2.39 -11.14,-5.97 -15.52,-10.75 -4.38,-4.78 -7.76,-10.54 -10.34,-17.31 -2.39,-6.96 -3.58,-14.73 -3.58,-23.68 0,-11.74 1.99,-21.69 5.97,-29.85 3.98,-8.16 9.75,-14.53 17.11,-18.7 7.36,-4.38 16.32,-6.57 26.46,-6.57 9.75,0 18.11,2.19 25.47,6.57 7.36,4.18 13.33,10.54 17.51,18.7 4.18,8.16 6.17,18.11 6.17,29.85zm-80.59 0c0,8.36 0.99,15.72 3.18,21.89 2.19,6.17 5.77,10.75 10.35,14.12 4.58,3.38 10.55,4.97 17.71,4.97 7.16,0 13.13,-1.59 17.71,-4.97 4.58,-3.38 7.96,-7.96 10.15,-14.12 2.19,-6.17 3.38,-13.53 3.38,-21.89 0,-8.55 -1.19,-15.72 -3.38,-21.69 -2.19,-5.97 -5.77,-10.55 -10.35,-13.93 -4.58,-3.18 -10.35,-4.78 -17.71,-4.78 -10.94,0 -18.7,3.58 -23.68,10.75 -4.97,7.16 -7.36,17.11 -7.36,29.65z"/>
   <polygon id="_4" class="fil7" points="741.6,1354.88 724.09,1354.88 724.09,1203.66 741.6,1203.66 "/>
   <path id="_5" class="fil7" d="M792.94 1248.24l0 106.65 -17.51 0 0 -106.65 17.51 0zm-8.56 -39.99c2.59,0 4.97,0.99 6.96,2.79 2.19,1.79 3.18,4.58 3.18,8.35 0,3.78 -0.99,6.57 -3.18,8.36 -1.99,1.79 -4.38,2.79 -6.96,2.79 -2.98,0 -5.37,-0.99 -7.36,-2.79 -1.99,-1.79 -2.98,-4.58 -2.98,-8.36 0,-3.78 0.99,-6.56 2.98,-8.35 1.99,-1.79 4.37,-2.79 7.36,-2.79z"/>
   <path id="_6" class="fil7" d="M919.49 1301.36c0,8.95 -1.19,16.72 -3.58,23.68 -2.19,6.77 -5.57,12.53 -9.95,17.31 -4.18,4.78 -9.55,8.36 -15.72,10.75 -6.17,2.59 -12.93,3.78 -20.5,3.78 -6.96,0 -13.53,-1.19 -19.5,-3.78 -5.97,-2.39 -11.14,-5.97 -15.52,-10.75 -4.38,-4.78 -7.76,-10.54 -10.34,-17.31 -2.39,-6.96 -3.58,-14.73 -3.58,-23.68 0,-11.74 1.99,-21.69 5.97,-29.85 3.98,-8.16 9.75,-14.53 17.11,-18.7 7.36,-4.38 16.32,-6.57 26.46,-6.57 9.75,0 18.11,2.19 25.47,6.57 7.36,4.18 13.33,10.54 17.51,18.7 4.18,8.16 6.17,18.11 6.17,29.85zm-80.59 0c0,8.36 0.99,15.72 3.18,21.89 2.19,6.17 5.77,10.75 10.35,14.12 4.58,3.38 10.55,4.97 17.71,4.97 7.16,0 13.13,-1.59 17.71,-4.97 4.58,-3.38 7.96,-7.96 10.15,-14.12 2.19,-6.17 3.38,-13.53 3.38,-21.89 0,-8.55 -1.19,-15.72 -3.38,-21.69 -2.19,-5.97 -5.77,-10.55 -10.35,-13.93 -4.58,-3.18 -10.35,-4.78 -17.71,-4.78 -10.94,0 -18.7,3.58 -23.68,10.75 -4.97,7.16 -7.36,17.11 -7.36,29.65z"/>
   <path id="_7" class="fil7" d="M997.29 1215.01c-1.19,4.57 -2.79,9.75 -4.58,15.12 -1.79,5.37 -3.98,10.94 -6.17,16.32 -2.19,5.37 -4.18,10.34 -6.37,15.12l-13.13 0c1.39,-4.97 2.59,-10.54 3.98,-16.31 1.19,-5.77 2.39,-11.34 3.38,-16.91 1.19,-5.77 2.19,-10.94 2.79,-15.52l18.7 0 1.39 2.19zm-36.81 0c-1.19,4.57 -2.79,9.75 -4.58,15.12 -1.79,5.37 -3.98,10.94 -6.17,16.32 -2.19,5.37 -4.18,10.34 -6.36,15.12l-12.74 0c0.99,-3.78 1.79,-7.76 2.79,-11.94 0.99,-4.18 1.79,-8.56 2.59,-12.93 0.99,-4.18 1.79,-8.36 2.39,-12.54 0.8,-4.18 1.39,-7.96 1.99,-11.34l18.7 0 1.39 2.19z"/>
   <path id="_8" class="fil7" d="M1014 1344.14c0,-4.97 1.19,-8.36 3.58,-10.34 2.38,-1.99 5.17,-2.98 8.55,-2.98 3.38,0 6.37,0.99 8.76,2.98 2.59,1.99 3.78,5.37 3.78,10.34 0,4.78 -1.19,8.16 -3.78,10.35 -2.39,2.19 -5.37,3.18 -8.76,3.18 -3.38,0 -6.17,-0.99 -8.55,-3.18 -2.39,-2.19 -3.58,-5.57 -3.58,-10.35zm0 -85.16c0,-4.97 1.19,-8.55 3.58,-10.54 2.38,-1.99 5.17,-2.98 8.55,-2.98 3.38,0 6.37,0.99 8.76,2.98 2.59,1.99 3.78,5.57 3.78,10.54 0,4.78 -1.19,8.16 -3.78,10.35 -2.39,2.19 -5.37,3.18 -8.76,3.18 -3.38,0 -6.17,-0.99 -8.55,-3.18 -2.39,-2.19 -3.58,-5.57 -3.58,-10.35z"/>
   <path id="_9" class="fil3 str6" d="M440.55 1386.32c-8.16,-0.2 -15.12,-1.39 -21.09,-3.58 -5.77,-2.19 -10.35,-5.77 -13.53,-10.54 -3.18,-4.58 -4.78,-10.55 -4.78,-17.51l0 -29.25c0,-4.58 -0.99,-8.16 -2.79,-10.75 -1.79,-2.79 -4.58,-4.78 -8.16,-5.97 -3.58,-1.39 -7.96,-1.99 -13.33,-1.99l0 -14.52c5.37,-0.2 9.75,-0.8 13.33,-1.99 3.58,-1.19 6.36,-3.18 8.16,-5.77 1.79,-2.79 2.79,-6.37 2.79,-10.75l0 -29.45c0,-6.96 1.59,-12.93 4.97,-17.51 3.38,-4.58 7.96,-8.16 13.93,-10.55 5.97,-2.19 12.73,-3.38 20.49,-3.38l0 14.32c-4.58,0.2 -8.36,0.8 -11.74,2.19 -3.38,1.39 -5.97,3.38 -7.76,5.97 -1.79,2.59 -2.59,6.17 -2.59,10.55l0 28.65c0,6.77 -1.79,12.14 -5.37,16.12 -3.58,4.18 -8.95,6.76 -16.32,8.16l0 1.19c7.36,1.39 12.93,3.98 16.32,7.96 3.58,4.18 5.37,9.55 5.37,16.32l0 29.25c0,4.18 0.8,7.76 2.59,10.35 1.79,2.79 4.18,4.78 7.56,5.97 3.38,1.39 7.36,1.99 11.94,2.19l0 14.32z"/>
   <path id="_10" class="fil3 str6" d="M515.96 1215.01c-1.19,4.57 -2.79,9.75 -4.58,15.12 -1.79,5.37 -3.98,10.94 -6.17,16.32 -2.19,5.37 -4.18,10.34 -6.37,15.12l-13.13 0c1.39,-4.97 2.59,-10.54 3.98,-16.31 1.19,-5.77 2.39,-11.34 3.38,-16.91 1.19,-5.77 2.19,-10.94 2.79,-15.52l18.7 0 1.39 2.19zm-36.81 0c-1.19,4.57 -2.79,9.75 -4.58,15.12 -1.79,5.37 -3.98,10.94 -6.17,16.32 -2.19,5.37 -4.18,10.34 -6.36,15.12l-12.74 0c0.99,-3.78 1.79,-7.76 2.79,-11.94 0.99,-4.18 1.79,-8.56 2.59,-12.93 0.99,-4.18 1.79,-8.36 2.39,-12.54 0.8,-4.18 1.39,-7.96 1.99,-11.34l18.7 0 1.39 2.19z"/>
   <path id="_11" class="fil3 str6" d="M584.41 1261.76l-26.86 0 0 93.12 -17.51 0 0 -93.12 -18.7 0 0 -8.16 18.7 -5.97 0 -6.17c0,-9.15 1.39,-16.52 3.98,-22.29 2.79,-5.77 6.77,-9.95 11.94,-12.53 5.17,-2.59 11.34,-3.98 18.71,-3.98 4.18,0 8.16,0.4 11.54,1.19 3.58,0.6 6.57,1.39 9.15,2.39l-4.58 13.73c-2.19,-0.6 -4.58,-1.39 -7.36,-1.99 -2.79,-0.6 -5.57,-0.99 -8.55,-0.99 -5.77,0 -10.15,1.99 -12.93,5.77 -2.98,3.98 -4.38,10.15 -4.38,18.51l0 6.96 26.86 0 0 13.53z"/>
   <path id="_12" class="fil3 str6" d="M696.43 1301.36c0,8.95 -1.19,16.72 -3.58,23.68 -2.19,6.77 -5.57,12.53 -9.95,17.31 -4.18,4.78 -9.55,8.36 -15.72,10.75 -6.17,2.59 -12.93,3.78 -20.5,3.78 -6.96,0 -13.53,-1.19 -19.5,-3.78 -5.97,-2.39 -11.14,-5.97 -15.52,-10.75 -4.38,-4.78 -7.76,-10.54 -10.34,-17.31 -2.39,-6.96 -3.58,-14.73 -3.58,-23.68 0,-11.74 1.99,-21.69 5.97,-29.85 3.98,-8.16 9.75,-14.53 17.11,-18.7 7.36,-4.38 16.32,-6.57 26.46,-6.57 9.75,0 18.11,2.19 25.47,6.57 7.36,4.18 13.33,10.54 17.51,18.7 4.18,8.16 6.17,18.11 6.17,29.85zm-80.59 0c0,8.36 0.99,15.72 3.18,21.89 2.19,6.17 5.77,10.75 10.35,14.12 4.58,3.38 10.55,4.97 17.71,4.97 7.16,0 13.13,-1.59 17.71,-4.97 4.58,-3.38 7.96,-7.96 10.15,-14.12 2.19,-6.17 3.38,-13.53 3.38,-21.89 0,-8.55 -1.19,-15.72 -3.38,-21.69 -2.19,-5.97 -5.77,-10.55 -10.35,-13.93 -4.58,-3.18 -10.35,-4.78 -17.71,-4.78 -10.94,0 -18.7,3.58 -23.68,10.75 -4.97,7.16 -7.36,17.11 -7.36,29.65z"/>
   <polygon id="_13" class="fil3 str6" points="741.6,1354.88 724.09,1354.88 724.09,1203.66 741.6,1203.66 "/>
   <path id="_14" class="fil3 str6" d="M792.94 1248.24l0 106.65 -17.51 0 0 -106.65 17.51 0zm-8.56 -39.99c2.59,0 4.97,0.99 6.96,2.79 2.19,1.79 3.18,4.58 3.18,8.35 0,3.78 -0.99,6.57 -3.18,8.36 -1.99,1.79 -4.38,2.79 -6.96,2.79 -2.98,0 -5.37,-0.99 -7.36,-2.79 -1.99,-1.79 -2.98,-4.58 -2.98,-8.36 0,-3.78 0.99,-6.56 2.98,-8.35 1.99,-1.79 4.37,-2.79 7.36,-2.79z"/>
   <path id="_15" class="fil3 str6" d="M919.49 1301.36c0,8.95 -1.19,16.72 -3.58,23.68 -2.19,6.77 -5.57,12.53 -9.95,17.31 -4.18,4.78 -9.55,8.36 -15.72,10.75 -6.17,2.59 -12.93,3.78 -20.5,3.78 -6.96,0 -13.53,-1.19 -19.5,-3.78 -5.97,-2.39 -11.14,-5.97 -15.52,-10.75 -4.38,-4.78 -7.76,-10.54 -10.34,-17.31 -2.39,-6.96 -3.58,-14.73 -3.58,-23.68 0,-11.74 1.99,-21.69 5.97,-29.85 3.98,-8.16 9.75,-14.53 17.11,-18.7 7.36,-4.38 16.32,-6.57 26.46,-6.57 9.75,0 18.11,2.19 25.47,6.57 7.36,4.18 13.33,10.54 17.51,18.7 4.18,8.16 6.17,18.11 6.17,29.85zm-80.59 0c0,8.36 0.99,15.72 3.18,21.89 2.19,6.17 5.77,10.75 10.35,14.12 4.58,3.38 10.55,4.97 17.71,4.97 7.16,0 13.13,-1.59 17.71,-4.97 4.58,-3.38 7.96,-7.96 10.15,-14.12 2.19,-6.17 3.38,-13.53 3.38,-21.89 0,-8.55 -1.19,-15.72 -3.38,-21.69 -2.19,-5.97 -5.77,-10.55 -10.35,-13.93 -4.58,-3.18 -10.35,-4.78 -17.71,-4.78 -10.94,0 -18.7,3.58 -23.68,10.75 -4.97,7.16 -7.36,17.11 -7.36,29.65z"/>
   <path id="_16" class="fil3 str6" d="M997.29 1215.01c-1.19,4.57 -2.79,9.75 -4.58,15.12 -1.79,5.37 -3.98,10.94 -6.17,16.32 -2.19,5.37 -4.18,10.34 -6.37,15.12l-13.13 0c1.39,-4.97 2.59,-10.54 3.98,-16.31 1.19,-5.77 2.39,-11.34 3.38,-16.91 1.19,-5.77 2.19,-10.94 2.79,-15.52l18.7 0 1.39 2.19zm-36.81 0c-1.19,4.57 -2.79,9.75 -4.58,15.12 -1.79,5.37 -3.98,10.94 -6.17,16.32 -2.19,5.37 -4.18,10.34 -6.36,15.12l-12.74 0c0.99,-3.78 1.79,-7.76 2.79,-11.94 0.99,-4.18 1.79,-8.56 2.59,-12.93 0.99,-4.18 1.79,-8.36 2.39,-12.54 0.8,-4.18 1.39,-7.96 1.99,-11.34l18.7 0 1.39 2.19z"/>
   <path id="_17" class="fil3 str6" d="M1014 1344.14c0,-4.97 1.19,-8.36 3.58,-10.34 2.38,-1.99 5.17,-2.98 8.55,-2.98 3.38,0 6.37,0.99 8.76,2.98 2.59,1.99 3.78,5.37 3.78,10.34 0,4.78 -1.19,8.16 -3.78,10.35 -2.39,2.19 -5.37,3.18 -8.76,3.18 -3.38,0 -6.17,-0.99 -8.55,-3.18 -2.39,-2.19 -3.58,-5.57 -3.58,-10.35zm0 -85.16c0,-4.97 1.19,-8.55 3.58,-10.54 2.38,-1.99 5.17,-2.98 8.55,-2.98 3.38,0 6.37,0.99 8.76,2.98 2.59,1.99 3.78,5.57 3.78,10.54 0,4.78 -1.19,8.16 -3.78,10.35 -2.39,2.19 -5.37,3.18 -8.76,3.18 -3.38,0 -6.17,-0.99 -8.55,-3.18 -2.39,-2.19 -3.58,-5.57 -3.58,-10.35z"/>
   <path class="fil8 str1" d="M1623.21 693.7l-0.76 93.62 -1372.68 0 0.82 -88.85c7.93,-142.19 140.21,-174.25 166.31,-169.47l1047.49 2.23c132.89,13.48 166.19,120.94 158.82,162.47z"/>
   <rect class="fil0 str0" x="1080.12" y="1256.57" width="481.91" height="87.11"/>
   <rect class="fil0 str0" x="427.5" y="1453.27" width="314.02" height="87.11"/>
   <path class="fil7" d="M801.99 1557.46c4.58,-0.2 8.56,-0.8 11.74,-2.19 3.38,-1.39 5.77,-3.38 7.56,-6.17 1.79,-2.59 2.79,-6.17 2.79,-10.35l0 -28.85c0,-6.77 1.79,-12.14 5.37,-16.12 3.58,-4.18 8.95,-6.77 16.32,-8.16l0 -1.19c-7.36,-1.39 -12.74,-3.98 -16.32,-8.16 -3.58,-3.98 -5.37,-9.35 -5.37,-16.12l0 -29.05c0,-4.38 -0.8,-7.96 -2.59,-10.55 -1.79,-2.59 -4.18,-4.58 -7.36,-5.97 -3.38,-1.39 -7.36,-1.99 -12.14,-1.99l0 -14.32c8.16,0 15.32,1.19 21.09,3.38 5.77,2.39 10.35,5.97 13.53,10.55 3.18,4.58 4.78,10.55 4.78,17.71l0 29.05c0,4.58 0.99,8.16 2.79,10.94 1.79,2.59 4.58,4.58 8.16,5.97 3.78,1.19 8.16,1.79 13.33,1.79l0 14.52c-5.17,0 -9.55,0.6 -13.33,1.99 -3.58,1.19 -6.37,3.18 -8.16,5.77 -1.79,2.59 -2.79,6.17 -2.79,10.75l0 29.65c0,6.96 -1.59,12.93 -4.97,17.51 -3.38,4.57 -7.96,8.16 -13.93,10.34 -5.77,2.39 -12.73,3.58 -20.49,3.58l0 -14.32z"/>
   <path id="_1_36" class="fil3 str6" d="M801.99 1557.46c4.58,-0.2 8.56,-0.8 11.74,-2.19 3.38,-1.39 5.77,-3.38 7.56,-6.17 1.79,-2.59 2.79,-6.17 2.79,-10.35l0 -28.85c0,-6.77 1.79,-12.14 5.37,-16.12 3.58,-4.18 8.95,-6.77 16.32,-8.16l0 -1.19c-7.36,-1.39 -12.74,-3.98 -16.32,-8.16 -3.58,-3.98 -5.37,-9.35 -5.37,-16.12l0 -29.05c0,-4.38 -0.8,-7.96 -2.59,-10.55 -1.79,-2.59 -4.18,-4.58 -7.36,-5.97 -3.38,-1.39 -7.36,-1.99 -12.14,-1.99l0 -14.32c8.16,0 15.32,1.19 21.09,3.38 5.77,2.39 10.35,5.97 13.53,10.55 3.18,4.58 4.78,10.55 4.78,17.71l0 29.05c0,4.58 0.99,8.16 2.79,10.94 1.79,2.59 4.58,4.58 8.16,5.97 3.78,1.19 8.16,1.79 13.33,1.79l0 14.52c-5.17,0 -9.55,0.6 -13.33,1.99 -3.58,1.19 -6.37,3.18 -8.16,5.77 -1.79,2.59 -2.79,6.17 -2.79,10.75l0 29.65c0,6.96 -1.59,12.93 -4.97,17.51 -3.38,4.57 -7.96,8.16 -13.93,10.34 -5.77,2.39 -12.73,3.58 -20.49,3.58l0 -14.32z"/>
   <ellipse class="fil4 str3" cx="411.3" cy="673.79" rx="59.37" ry="62.79"/>
   <ellipse class="fil9 str7" cx="554.37" cy="679.4" rx="59.37" ry="62.79"/>
   <ellipse class="fil0 str0" cx="701.65" cy="685.01" rx="59.37" ry="62.79"/>
  </g>
 </g>
</svg>
