<?xml version="1.0" encoding="UTF-8"?>
<!DOCTYPE svg PUBLIC "-//W3C//DTD SVG 1.1//EN" "http://www.w3.org/Graphics/SVG/1.1/DTD/svg11.dtd">
<!-- Creator: CorelDRAW (Evaluation Version) -->
<svg xmlns="http://www.w3.org/2000/svg" xml:space="preserve" width="119.974mm" height="61.46mm" version="1.1" style="shape-rendering:geometricPrecision; text-rendering:geometricPrecision; image-rendering:optimizeQuality; fill-rule:evenodd; clip-rule:evenodd"
viewBox="0 0 10387.75 5321.41"
 xmlns:xlink="http://www.w3.org/1999/xlink"
 xmlns:xodm="http://www.corel.com/coreldraw/odm/2003">
 <defs>
  <style type="text/css">
   <![CDATA[
    .str4 {stroke:#A8AAAD;stroke-width:17.32;stroke-miterlimit:22.9256}
    .str7 {stroke:#828487;stroke-width:17.32;stroke-miterlimit:22.9256}
    .str2 {stroke:#6F7173;stroke-width:17.32;stroke-miterlimit:22.9256}
    .str9 {stroke:#FFF200;stroke-width:17.32;stroke-miterlimit:22.9256}
    .str6 {stroke:#F5842A;stroke-width:17.32;stroke-miterlimit:22.9256}
    .str5 {stroke:#ED282E;stroke-width:17.32;stroke-miterlimit:22.9256}
    .str0 {stroke:#00A755;stroke-width:17.32;stroke-miterlimit:22.9256}
    .str8 {stroke:#828487;stroke-width:6.6;stroke-miterlimit:22.9256}
    .str3 {stroke:#6F7173;stroke-width:6.6;stroke-miterlimit:2.61313}
    .str1 {stroke:#00A755;stroke-width:6.6;stroke-miterlimit:22.9256}
    .fil4 {fill:none}
    .fil2 {fill:none;fill-rule:nonzero}
    .fil11 {fill:#A8AAAD}
    .fil9 {fill:#828487}
    .fil3 {fill:#6F7173}
    .fil6 {fill:#454546}
    .fil12 {fill:#FFF200}
    .fil8 {fill:#F5842A}
    .fil7 {fill:#ED282E}
    .fil0 {fill:#00A755}
    .fil10 {fill:#828487;fill-rule:nonzero}
    .fil5 {fill:#6F7173;fill-rule:nonzero}
    .fil13 {fill:#5C5C5E;fill-rule:nonzero}
    .fil1 {fill:#00A755;fill-rule:nonzero}
   ]]>
  </style>
 </defs>
 <g id="Layer_x0020_1">
  <metadata id="CorelCorpID_0Corel-Layer"/>
  <g id="_1053970288">
   <polygon class="fil0 str0" points="318.02,1504.28 17.13,1335.43 2188.36,10.15 4359.62,1335.43 4359.62,3985.98 4058.73,3817.13 4058.73,1504.28 2188.36,362.65 "/>
   <polygon class="fil0 str0" points="17.13,3985.98 17.13,1335.43 318.02,1504.28 318.02,3817.13 2188.36,4958.76 4058.73,3817.13 4359.62,3985.98 2188.36,5311.26 "/>
  </g>
  <path class="fil1" d="M4725.26 3341.59l0 -1010.23 748.91 0c98.33,0 180.49,5.39 243.8,17.52 63.31,12.12 113.15,35.01 149.51,68.7 35.02,33.67 59.27,83.51 74.08,148.16 14.82,66 21.56,150.86 21.56,257.27l0 26.94c0,103.72 -6.74,187.23 -21.56,251.89 -14.81,64.65 -39.06,114.49 -74.08,148.16 -36.36,35.02 -86.2,59.27 -149.51,72.74 -63.31,12.12 -145.47,18.86 -243.8,18.86l-748.91 0zm125.27 -109.1l623.64 0c79.47,0 142.78,-4.04 189.92,-10.78 47.14,-8.08 83.51,-24.24 109.1,-48.49 25.59,-25.59 41.76,-63.31 51.19,-114.49 8.08,-52.54 12.12,-121.23 12.12,-208.79l0 -26.94c0,-72.74 -2.69,-133.35 -6.74,-180.49 -5.39,-47.14 -14.81,-83.52 -29.63,-111.81 -14.82,-26.94 -35.02,-47.14 -61.96,-60.61 -26.94,-12.12 -61.97,-20.21 -105.07,-24.24 -43.1,-4.04 -95.63,-5.39 -158.94,-5.39l-623.64 0 0 792.02z"/>
  <polygon id="_1" class="fil1" points="6614.39,3341.59 6614.39,2436.43 6109.27,2436.43 6109.27,2331.36 7246.11,2331.36 7246.11,2436.43 6741,2436.43 6741,3341.59 "/>
  <polygon id="_2" class="fil1" points="7434.01,3341.59 7434.01,2331.36 8425.38,2331.36 8425.38,2436.43 7560.63,2436.43 7560.63,2773.17 8389.01,2773.17 8389.01,2878.23 7560.63,2878.23 7560.63,3236.53 8444.24,3236.53 8444.24,3341.59 "/>
  <path id="_3" class="fil2 str1" d="M4725.26 3341.59l0 -1010.23 748.91 0c98.33,0 180.49,5.39 243.8,17.52 63.31,12.12 113.15,35.01 149.51,68.7 35.02,33.67 59.27,83.51 74.08,148.16 14.82,66 21.56,150.86 21.56,257.27l0 26.94c0,103.72 -6.74,187.23 -21.56,251.89 -14.81,64.65 -39.06,114.49 -74.08,148.16 -36.36,35.02 -86.2,59.27 -149.51,72.74 -63.31,12.12 -145.47,18.86 -243.8,18.86l-748.91 0zm125.27 -109.1l623.64 0c79.47,0 142.78,-4.04 189.92,-10.78 47.14,-8.08 83.51,-24.24 109.1,-48.49 25.59,-25.59 41.76,-63.31 51.19,-114.49 8.08,-52.54 12.12,-121.23 12.12,-208.79l0 -26.94c0,-72.74 -2.69,-133.35 -6.74,-180.49 -5.39,-47.14 -14.81,-83.52 -29.63,-111.81 -14.82,-26.94 -35.02,-47.14 -61.96,-60.61 -26.94,-12.12 -61.97,-20.21 -105.07,-24.24 -43.1,-4.04 -95.63,-5.39 -158.94,-5.39l-623.64 0 0 792.02z"/>
  <polygon id="_4" class="fil2 str1" points="6614.39,3341.59 6614.39,2436.43 6109.27,2436.43 6109.27,2331.36 7246.11,2331.36 7246.11,2436.43 6741,2436.43 6741,3341.59 "/>
  <polygon id="_5" class="fil2 str1" points="7434.01,3341.59 7434.01,2331.36 8425.38,2331.36 8425.38,2436.43 7560.63,2436.43 7560.63,2773.17 8389.01,2773.17 8389.01,2878.23 7560.63,2878.23 7560.63,3236.53 8444.24,3236.53 8444.24,3341.59 "/>
  <g id="_743324024">
   <g>
    <path class="fil3" d="M4847.22 1904.43l0 -173.19 -299 -242.47 88.61 0 243.71 203.49 243.58 -203.49 88.6 0 -299 242.47 0 173.19 -66.51 0zm476.31 0l0 -415.66 521.8 0 0 43.33 -455.4 0 0 138.55 436.39 0 0 43.23 -436.39 0 0 147.23 465.21 0 0 43.32 -531.61 0zm621.51 -370.77l0 -44.89 355.82 0c51.85,0 93.67,1.94 125.45,5.91 31.78,3.97 55.76,10.62 72.19,19.95 16.41,9.33 27.39,21.8 33.19,37.6 5.79,15.79 8.62,35.38 8.62,58.83l0 10.81c0,22.44 -2.96,41.38 -8.74,56.99 -5.9,15.61 -17.24,28.27 -34.14,37.78 -16.89,9.51 -41.23,16.53 -73.01,20.97 -31.78,4.42 -73.72,6.64 -125.69,6.64l-287.18 0 0 160.17 -66.51 0 0 -207.83 0 -162.94zm0 162.94l343.06 2.68c41.23,0 74.19,-1.01 98.88,-3.05 24.69,-2.12 43.35,-5.9 55.76,-11.36 12.41,-5.54 20.8,-13.39 24.93,-23.56 4.13,-10.25 6.26,-23.36 6.26,-39.44l0 -10.81c0,-17.09 -2.13,-30.85 -6.26,-41.1 -4.13,-10.26 -12.52,-18.01 -24.93,-23.28 -12.41,-5.26 -31.07,-8.68 -55.76,-10.44 -24.68,-1.75 -57.65,-2.58 -98.88,-2.58l-343.06 0 0 6.53 0 156.41z"/>
    <path id="_1_6" class="fil4 str2" d="M4847.22 1904.43l0 -173.19 -299 -242.47 88.61 0 243.71 203.49 243.58 -203.49 88.6 0 -299 242.47 0 173.19 -66.51 0zm476.31 0l0 -415.66 521.8 0 0 43.33 -455.4 0 0 138.55 436.39 0 0 43.23 -436.39 0 0 147.23 465.21 0 0 43.32 -531.61 0zm621.51 -370.77l0 -44.89 355.82 0c51.85,0 93.67,1.94 125.45,5.91 31.78,3.97 55.76,10.62 72.19,19.95 16.41,9.33 27.39,21.8 33.19,37.6 5.79,15.79 8.62,35.38 8.62,58.83l0 10.81c0,22.44 -2.96,41.38 -8.74,56.99 -5.9,15.61 -17.24,28.27 -34.14,37.78 -16.89,9.51 -41.23,16.53 -73.01,20.97 -31.78,4.42 -73.72,6.64 -125.69,6.64l-287.18 0 0 160.17 -66.51 0 0 -207.83m0 0l343.06 2.68c41.23,0 74.19,-1.01 98.88,-3.05 24.69,-2.12 43.35,-5.9 55.76,-11.36 12.41,-5.54 20.8,-13.39 24.93,-23.56 4.13,-10.25 6.26,-23.36 6.26,-39.44l0 -10.81c0,-17.09 -2.13,-30.85 -6.26,-41.1 -4.13,-10.26 -12.52,-18.01 -24.93,-23.28 -12.41,-5.26 -31.07,-8.68 -55.76,-10.44 -24.68,-1.75 -57.65,-2.58 -98.88,-2.58l-343.06 0 0 6.53"/>
   </g>
   <path class="fil3 str2" d="M7165.02 1904.43l77.6 0 -310.1 -415.66 -88.59 0 -310.11 415.66 77.5 0 276.9 -381.02 276.79 381.02zm173.43 -415.66l349.9 0c51.86,0 93.68,1.85 125.46,5.45 31.78,3.6 55.75,9.78 72.18,18.66 16.42,8.77 27.4,20.88 33.2,36.21 5.79,15.33 8.62,34.73 8.62,58.18l0 10.81c0,21.71 -3.32,40.27 -9.82,55.88 -6.61,15.61 -19.25,28.27 -37.91,37.97 -18.66,9.6 -46.3,16.43 -83.04,20.41l115.53 172.08 -66.38 0 -113.18 -168.29c-4.61,0.18 -9.45,0.28 -14.41,0.28 -4.96,0 -10.04,0 -15.36,0l-304.19 0 0 168.01 -60.59 0 0 -213.32 354.39 0.32c39.46,0 70.52,-1.02 93.32,-3.06 22.68,-2.12 39.34,-5.72 50.09,-10.99 10.75,-5.27 17.72,-12.66 20.68,-22.17 2.95,-9.61 4.49,-21.99 4.49,-37.14l0 -10.81c0,-17.08 -2.13,-30.66 -6.27,-40.55 -4.13,-9.88 -12.52,-17.27 -24.93,-21.98 -12.4,-4.71 -31.07,-7.66 -55.76,-9.06 -24.68,-1.38 -57.65,-2.03 -98.88,-2.03l-337.14 0.41 0 -45.3z"/>
  </g>
  <g id="_1060239872">
   <path class="fil5" d="M8667.08 3111.64l0 -8.59c0,-28.35 1.29,-52.39 3.86,-71.72 3,-19.33 7.71,-35.21 14.58,-47.24 6.86,-12.46 16.29,-21.47 27.87,-27.91 11.58,-6.44 26.58,-11.17 44.58,-13.32 17.59,-2.15 39.02,-3.44 64.31,-3.44l84.46 0c28.73,0 53.17,1.29 72.89,4.29 19.72,2.58 35.59,7.73 47.59,15.9 12.01,8.16 20.58,20.18 26.15,35.64 5.58,15.46 8.16,36.08 8.16,61.85l-39.88 0c0,-20.18 -1.71,-36.08 -5.58,-47.24 -3.85,-11.17 -9.86,-19.33 -18.43,-24.48 -8.58,-4.73 -20.15,-7.73 -35.16,-9.02 -14.57,-1.29 -33.01,-2.15 -55.73,-2.15l-84.46 0c-20.15,0 -36.88,0.86 -50.16,2.15 -13.72,1.29 -24.88,3.86 -33.45,8.16 -8.57,4.29 -15,11.17 -19.72,20.19 -4.71,9.01 -7.71,21.9 -9.44,37.78 -1.71,15.9 -2.56,36.08 -2.56,60.56l0 8.59c0,23.62 0.86,43.38 2.56,58.83 1.72,15.89 4.73,28.35 9.44,37.79 4.72,9.45 11.15,16.32 19.72,21.04 8.57,4.73 19.72,7.73 33.45,9.02 13.28,1.29 30.01,2.15 50.16,2.15l84.46 0c22.73,0 41.16,-0.43 55.73,-1.71 15.01,-0.87 26.58,-3.87 35.16,-8.59 8.57,-4.73 14.58,-12.46 18.43,-23.62 3.87,-11.17 5.58,-26.63 5.58,-46.82l39.88 0c0,25.34 -2.58,45.95 -8.16,61.41 -5.57,15.46 -14.14,27.06 -26.15,34.79 -12.01,7.72 -27.87,12.88 -47.59,15.46 -19.72,2.58 -44.16,3.87 -72.89,3.87l-84.46 0c-31.3,0 -57.02,-2.15 -77.17,-6.44 -20.15,-4.29 -36.01,-12.03 -47.59,-23.62 -11.58,-11.6 -19.3,-27.91 -24.01,-49.39 -4.29,-21.91 -6.43,-49.82 -6.43,-84.18z"/>
   <path id="_1_7" class="fil5" d="M9271.33 3275.27c-31.3,0 -57.02,-2.15 -77.18,-6.44 -20.15,-4.29 -36.01,-12.03 -47.59,-23.62 -11.57,-11.6 -19.29,-27.91 -24,-49.39 -4.29,-21.91 -6.43,-49.82 -6.43,-84.18l0 -8.59c0,-28.35 1.29,-52.39 3.86,-71.72 3,-19.33 7.71,-35.21 14.58,-47.24 6.85,-12.46 16.29,-21.47 27.86,-27.91 11.58,-6.44 26.58,-11.17 44.59,-13.32 17.59,-2.15 39.02,-3.44 64.31,-3.44l84.46 0c25.3,0 46.74,1.29 64.31,3.44 18,2.15 33.01,6.87 44.59,13.32 11.58,6.44 21.01,15.46 27.87,27.91 6.86,12.03 11.58,27.91 14.57,47.24 3,19.33 4.29,43.37 4.29,71.72l0 8.59c0,34.36 -2.14,62.27 -6.86,84.18 -4.72,21.47 -12.43,37.78 -24.01,49.39 -11.15,11.59 -27.01,19.33 -47.16,23.62 -20.15,4.29 -46.3,6.44 -77.6,6.44l-84.46 0zm0 -34.79l84.46 0c20.15,0 36.88,-0.86 50.59,-2.15 13.72,-1.29 24.87,-4.29 33.45,-9.02 8.57,-4.72 15,-11.59 19.72,-21.04 4.29,-9.45 7.3,-21.91 9,-37.79 1.71,-15.46 2.58,-35.21 2.58,-58.83l0 -8.59c0,-24.48 -0.87,-44.66 -2.58,-60.56 -1.71,-15.89 -4.72,-28.77 -9,-37.78 -4.71,-9.02 -11.14,-15.9 -19.72,-20.19 -8.58,-4.29 -19.72,-6.87 -33.45,-8.16 -13.71,-1.29 -30.44,-2.15 -50.59,-2.15l-84.46 0c-20.15,0 -36.88,0.86 -50.17,2.15 -13.71,1.29 -24.87,3.86 -33.44,8.16 -8.58,4.29 -15,11.17 -19.73,20.19 -4.71,9.01 -7.71,21.9 -9.43,37.78 -1.71,15.9 -2.56,36.08 -2.56,60.56l0 8.59c0,23.62 0.86,43.38 2.56,58.83 1.72,15.89 4.72,28.35 9.43,37.79 4.73,9.45 11.15,16.32 19.73,21.04 8.57,4.73 19.72,7.73 33.44,9.02 13.29,1.29 30.02,2.15 50.17,2.15z"/>
   <path id="_2_8" class="fil2 str3" d="M8667.08 3111.64l0 -8.59c0,-28.35 1.29,-52.39 3.86,-71.72 3,-19.33 7.71,-35.21 14.58,-47.24 6.86,-12.46 16.29,-21.47 27.87,-27.91 11.58,-6.44 26.58,-11.17 44.58,-13.32 17.59,-2.15 39.02,-3.44 64.31,-3.44l84.46 0c28.73,0 53.17,1.29 72.89,4.29 19.72,2.58 35.59,7.73 47.59,15.9 12.01,8.16 20.58,20.18 26.15,35.64 5.58,15.46 8.16,36.08 8.16,61.85l-39.88 0c0,-20.18 -1.71,-36.08 -5.58,-47.24 -3.85,-11.17 -9.86,-19.33 -18.43,-24.48 -8.58,-4.73 -20.15,-7.73 -35.16,-9.02 -14.57,-1.29 -33.01,-2.15 -55.73,-2.15l-84.46 0c-20.15,0 -36.88,0.86 -50.16,2.15 -13.72,1.29 -24.88,3.86 -33.45,8.16 -8.57,4.29 -15,11.17 -19.72,20.19 -4.71,9.01 -7.71,21.9 -9.44,37.78 -1.71,15.9 -2.56,36.08 -2.56,60.56l0 8.59c0,23.62 0.86,43.38 2.56,58.83 1.72,15.89 4.73,28.35 9.44,37.79 4.72,9.45 11.15,16.32 19.72,21.04 8.57,4.73 19.72,7.73 33.45,9.02 13.28,1.29 30.01,2.15 50.16,2.15l84.46 0c22.73,0 41.16,-0.43 55.73,-1.71 15.01,-0.87 26.58,-3.87 35.16,-8.59 8.57,-4.73 14.58,-12.46 18.43,-23.62 3.87,-11.17 5.58,-26.63 5.58,-46.82l39.88 0c0,25.34 -2.58,45.95 -8.16,61.41 -5.57,15.46 -14.14,27.06 -26.15,34.79 -12.01,7.72 -27.87,12.88 -47.59,15.46 -19.72,2.58 -44.16,3.87 -72.89,3.87l-84.46 0c-31.3,0 -57.02,-2.15 -77.17,-6.44 -20.15,-4.29 -36.01,-12.03 -47.59,-23.62 -11.58,-11.6 -19.3,-27.91 -24.01,-49.39 -4.29,-21.91 -6.43,-49.82 -6.43,-84.18z"/>
   <path id="_3_9" class="fil2 str3" d="M9271.33 3275.27c-31.3,0 -57.02,-2.15 -77.18,-6.44 -20.15,-4.29 -36.01,-12.03 -47.59,-23.62 -11.57,-11.6 -19.29,-27.91 -24,-49.39 -4.29,-21.91 -6.43,-49.82 -6.43,-84.18l0 -8.59c0,-28.35 1.29,-52.39 3.86,-71.72 3,-19.33 7.71,-35.21 14.58,-47.24 6.85,-12.46 16.29,-21.47 27.86,-27.91 11.58,-6.44 26.58,-11.17 44.59,-13.32 17.59,-2.15 39.02,-3.44 64.31,-3.44l84.46 0c25.3,0 46.74,1.29 64.31,3.44 18,2.15 33.01,6.87 44.59,13.32 11.58,6.44 21.01,15.46 27.87,27.91 6.86,12.03 11.58,27.91 14.57,47.24 3,19.33 4.29,43.37 4.29,71.72l0 8.59c0,34.36 -2.14,62.27 -6.86,84.18 -4.72,21.47 -12.43,37.78 -24.01,49.39 -11.15,11.59 -27.01,19.33 -47.16,23.62 -20.15,4.29 -46.3,6.44 -77.6,6.44l-84.46 0zm0 -34.79l84.46 0c20.15,0 36.88,-0.86 50.59,-2.15 13.72,-1.29 24.87,-4.29 33.45,-9.02 8.57,-4.72 15,-11.59 19.72,-21.04 4.29,-9.45 7.3,-21.91 9,-37.79 1.71,-15.46 2.58,-35.21 2.58,-58.83l0 -8.59c0,-24.48 -0.87,-44.66 -2.58,-60.56 -1.71,-15.89 -4.72,-28.77 -9,-37.78 -4.71,-9.02 -11.14,-15.9 -19.72,-20.19 -8.58,-4.29 -19.72,-6.87 -33.45,-8.16 -13.71,-1.29 -30.44,-2.15 -50.59,-2.15l-84.46 0c-20.15,0 -36.88,0.86 -50.17,2.15 -13.71,1.29 -24.87,3.86 -33.44,8.16 -8.58,4.29 -15,11.17 -19.73,20.19 -4.71,9.01 -7.71,21.9 -9.43,37.78 -1.71,15.9 -2.56,36.08 -2.56,60.56l0 8.59c0,23.62 0.86,43.38 2.56,58.83 1.72,15.89 4.72,28.35 9.43,37.79 4.73,9.45 11.15,16.32 19.73,21.04 8.57,4.73 19.72,7.73 33.44,9.02 13.29,1.29 30.02,2.15 50.17,2.15z"/>
   <polygon class="fil5" points="10062.96,3268.69 10062.96,2946.6 10378.52,2946.6 10378.52,2980.1 10103.27,2980.1 10103.27,3087.47 10366.95,3087.47 10366.95,3120.96 10103.27,3120.96 10103.27,3235.19 10384.52,3235.19 10384.52,3268.69 "/>
   <polygon id="_1_10" class="fil2 str3" points="10062.96,3268.69 10062.96,2946.6 10378.52,2946.6 10378.52,2980.1 10103.27,2980.1 10103.27,3087.47 10366.95,3087.47 10366.95,3120.96 10103.27,3120.96 10103.27,3235.19 10384.52,3235.19 10384.52,3268.69 "/>
   <path class="fil3 str2" d="M9565.97 2953.89l258.86 0c38.37,0 69.31,1.37 92.82,4.03 23.51,2.67 41.24,7.24 53.4,13.8 12.15,6.49 20.27,15.45 24.56,26.8 4.29,11.33 6.38,25.69 6.38,43.04l0 8c0,16.06 -2.45,29.79 -7.26,41.33 -4.88,11.55 -14.23,20.92 -28.04,28.1 -13.81,7.1 -34.26,12.16 -61.44,15.09l85.47 127.31 -49.11 0 -83.73 -124.5c-3.41,0.13 -7,0.2 -10.67,0.2 -3.67,0 -7.43,0 -11.36,0l-225.05 0 0 124.3 -44.82 0 0 -157.82 262.18 0.24c29.19,0 52.18,-0.76 69.04,-2.26 16.78,-1.58 29.11,-4.24 37.06,-8.13 7.95,-3.9 13.11,-9.37 15.29,-16.4 2.19,-7.12 3.32,-16.27 3.32,-27.47l0 -8c0,-12.64 -1.58,-22.68 -4.64,-30 -3.05,-7.31 -9.26,-12.78 -18.43,-16.26 -9.18,-3.49 -22.99,-5.67 -41.26,-6.7 -18.25,-1.01 -42.64,-1.5 -73.15,-1.5l-249.41 0.3 0 -33.52z"/>
  </g>
  <g id="_1079077112">
   <rect class="fil6 str4" x="586.85" y="1258.93" width="3235.1" height="2792.76" rx="359.46" ry="422.54"/>
   <path class="fil1" d="M972.71 2271.35c-17.3,-0.47 -33.66,-1.87 -50.03,-4.21 -16.36,-2.81 -29.45,-6.55 -39.27,-11.22l0 -39.73c10.75,5.14 24.3,9.35 40.67,13.09 16.36,3.74 32.73,5.61 48.63,6.08l0 -94.44c-20.57,-5.61 -37.4,-12.16 -50.5,-19.17 -13.09,-7.48 -22.9,-16.36 -28.98,-27.12 -6.55,-10.75 -9.82,-23.38 -9.82,-37.86 0,-15.43 3.74,-28.52 10.75,-39.27 7.47,-10.75 17.76,-19.64 31.32,-25.72 13.56,-6.55 28.99,-10.29 47.22,-11.22l0 -41.14 29.91 0 0 40.67c16.36,0.47 31.79,2.34 45.35,5.61 13.56,3.27 25.72,7.01 36.94,11.69l-12.62 34.6c-9.82,-4.21 -21.04,-7.48 -32.73,-10.29 -12.16,-3.27 -24.31,-5.14 -36.94,-6.08l0 93.97c20.57,6.08 37.87,12.16 51.43,19.17 13.56,6.55 23.85,14.49 30.86,24.31 7,9.81 10.74,22.9 10.74,38.33 0,21.97 -7.94,39.74 -24.3,53.3 -16.36,13.55 -39.27,21.5 -68.73,24.77l0 51.9 -29.91 0 0 -50.03zm29.91 -38.33c18.23,-1.87 31.79,-6.08 40.21,-12.62 8.42,-7.01 12.62,-15.43 12.62,-26.18 0,-7.95 -1.4,-14.03 -4.68,-19.17 -3.27,-5.14 -8.42,-9.82 -16.36,-13.56 -7.48,-3.74 -18.23,-7.47 -31.79,-10.74l0 82.28zm-29.91 -216.46c-11.22,0.47 -20.57,2.34 -27.59,5.61 -7.01,3.27 -12.62,7.95 -16.36,13.09 -3.27,5.14 -5.14,11.22 -5.14,18.23 0,7.94 1.4,14.95 4.21,21.03 3.27,5.61 8.42,10.29 15.43,14.49 7.01,3.74 16.83,7.01 29.46,10.29l0 -82.75z"/>
   <path id="_1_11" class="fil2 str1" d="M972.71 2271.35c-17.3,-0.47 -33.66,-1.87 -50.03,-4.21 -16.36,-2.81 -29.45,-6.55 -39.27,-11.22l0 -39.73c10.75,5.14 24.3,9.35 40.67,13.09 16.36,3.74 32.73,5.61 48.63,6.08l0 -94.44c-20.57,-5.61 -37.4,-12.16 -50.5,-19.17 -13.09,-7.48 -22.9,-16.36 -28.98,-27.12 -6.55,-10.75 -9.82,-23.38 -9.82,-37.86 0,-15.43 3.74,-28.52 10.75,-39.27 7.47,-10.75 17.76,-19.64 31.32,-25.72 13.56,-6.55 28.99,-10.29 47.22,-11.22l0 -41.14 29.91 0 0 40.67c16.36,0.47 31.79,2.34 45.35,5.61 13.56,3.27 25.72,7.01 36.94,11.69l-12.62 34.6c-9.82,-4.21 -21.04,-7.48 -32.73,-10.29 -12.16,-3.27 -24.31,-5.14 -36.94,-6.08l0 93.97c20.57,6.08 37.87,12.16 51.43,19.17 13.56,6.55 23.85,14.49 30.86,24.31 7,9.81 10.74,22.9 10.74,38.33 0,21.97 -7.94,39.74 -24.3,53.3 -16.36,13.55 -39.27,21.5 -68.73,24.77l0 51.9 -29.91 0 0 -50.03zm29.91 -38.33c18.23,-1.87 31.79,-6.08 40.21,-12.62 8.42,-7.01 12.62,-15.43 12.62,-26.18 0,-7.95 -1.4,-14.03 -4.68,-19.17 -3.27,-5.14 -8.42,-9.82 -16.36,-13.56 -7.48,-3.74 -18.23,-7.47 -31.79,-10.74l0 82.28zm-29.91 -216.46c-11.22,0.47 -20.57,2.34 -27.59,5.61 -7.01,3.27 -12.62,7.95 -16.36,13.09 -3.27,5.14 -5.14,11.22 -5.14,18.23 0,7.94 1.4,14.95 4.21,21.03 3.27,5.61 8.42,10.29 15.43,14.49 7.01,3.74 16.83,7.01 29.46,10.29l0 -82.75z"/>
   <rect class="fil7 str5" x="1233.87" y="2057.8" width="1538.32" height="204.67"/>
   <rect class="fil8 str6" x="883.95" y="2506.76" width="396.14" height="165.06"/>
   <rect class="fil9 str7" x="1439.62" y="2496.86" width="1901.45" height="165.05"/>
   <path class="fil10" d="M1035.11 3257.26c-19.17,-0.47 -35.53,-3.27 -49.55,-8.42 -13.56,-5.14 -24.31,-13.56 -31.79,-24.77 -7.48,-10.75 -11.22,-24.78 -11.22,-41.14l0 -68.72c0,-10.75 -2.34,-19.17 -6.55,-25.25 -4.21,-6.55 -10.75,-11.22 -19.16,-14.03 -8.42,-3.27 -18.7,-4.68 -31.33,-4.68l0 -34.12c12.62,-0.47 22.91,-1.87 31.33,-4.68 8.41,-2.81 14.95,-7.48 19.16,-13.56 4.21,-6.55 6.55,-14.96 6.55,-25.25l0 -69.19c0,-16.36 3.74,-30.39 11.69,-41.14 7.95,-10.75 18.7,-19.17 32.73,-24.78 14.03,-5.13 29.91,-7.94 48.15,-7.94l0 33.65c-10.75,0.47 -19.64,1.87 -27.58,5.14 -7.95,3.27 -14.03,7.95 -18.23,14.03 -4.21,6.08 -6.08,14.49 -6.08,24.78l0 67.32c0,15.9 -4.21,28.52 -12.62,37.87 -8.42,9.82 -21.04,15.89 -38.34,19.16l0 2.81c17.3,3.27 30.39,9.35 38.34,18.7 8.42,9.82 12.62,22.44 12.62,38.34l0 68.72c0,9.82 1.87,18.23 6.08,24.31 4.21,6.55 9.82,11.22 17.77,14.03 7.94,3.27 17.29,4.68 28.04,5.14l0 33.65z"/>
   <path id="_1_12" class="fil10" d="M1212.3 2854.75c-2.81,10.74 -6.55,22.9 -10.75,35.53 -4.21,12.62 -9.35,25.72 -14.49,38.34 -5.14,12.62 -9.82,24.3 -14.96,35.53l-30.86 0c3.27,-11.69 6.08,-24.77 9.35,-38.33 2.81,-13.56 5.61,-26.65 7.95,-39.74 2.81,-13.56 5.14,-25.72 6.55,-36.46l43.94 0 3.27 5.14zm-86.49 0c-2.81,10.74 -6.55,22.9 -10.75,35.53 -4.21,12.62 -9.35,25.72 -14.49,38.34 -5.13,12.62 -9.81,24.3 -14.95,35.53l-29.92 0c2.34,-8.88 4.21,-18.23 6.55,-28.04 2.34,-9.82 4.21,-20.1 6.08,-30.39 2.34,-9.82 4.21,-19.64 5.61,-29.46 1.87,-9.82 3.27,-18.7 4.68,-26.64l43.94 0 3.27 5.14z"/>
   <path id="_2_13" class="fil10" d="M1373.12 2964.6l-63.11 0 0 218.8 -41.14 0 0 -218.8 -43.94 0 0 -19.16 43.94 -14.03 0 -14.49c0,-21.51 3.27,-38.81 9.35,-52.37 6.55,-13.55 15.9,-23.37 28.05,-29.45 12.16,-6.08 26.65,-9.35 43.95,-9.35 9.81,0 19.16,0.94 27.11,2.81 8.42,1.4 15.43,3.27 21.51,5.61l-10.75 32.25c-5.14,-1.4 -10.75,-3.27 -17.3,-4.68 -6.55,-1.4 -13.08,-2.34 -20.1,-2.34 -13.56,0 -23.85,4.68 -30.39,13.56 -7.01,9.35 -10.29,23.85 -10.29,43.48l0 16.36 63.11 0 0 31.78z"/>
   <path id="_3_14" class="fil10" d="M1636.32 3057.64c0,21.04 -2.81,39.27 -8.42,55.64 -5.14,15.9 -13.09,29.45 -23.37,40.67 -9.82,11.22 -22.44,19.64 -36.94,25.25 -14.49,6.08 -30.39,8.88 -48.16,8.88 -16.36,0 -31.78,-2.81 -45.81,-8.88 -14.03,-5.61 -26.18,-14.03 -36.47,-25.25 -10.29,-11.22 -18.23,-24.77 -24.3,-40.67 -5.61,-16.36 -8.42,-34.6 -8.42,-55.64 0,-27.58 4.68,-50.95 14.03,-70.12 9.34,-19.17 22.9,-34.13 40.2,-43.94 17.3,-10.29 38.34,-15.43 62.18,-15.43 22.91,0 42.55,5.14 59.85,15.43 17.3,9.81 31.33,24.77 41.14,43.94 9.82,19.17 14.49,42.55 14.49,70.12zm-189.34 0c0,19.64 2.34,36.94 7.48,51.43 5.14,14.49 13.56,25.25 24.31,33.19 10.75,7.95 24.78,11.69 41.6,11.69 16.83,0 30.86,-3.74 41.61,-11.69 10.75,-7.94 18.7,-18.69 23.85,-33.19 5.14,-14.49 7.95,-31.79 7.95,-51.43 0,-20.1 -2.81,-36.93 -7.95,-50.95 -5.14,-14.03 -13.56,-24.78 -24.31,-32.73 -10.75,-7.48 -24.31,-11.22 -41.61,-11.22 -25.71,0 -43.94,8.42 -55.63,25.25 -11.69,16.83 -17.3,40.21 -17.3,69.66z"/>
   <polygon id="_4_15" class="fil10" points="1742.45,3183.4 1701.31,3183.4 1701.31,2828.1 1742.45,2828.1 "/>
   <path id="_5_16" class="fil10" d="M1863.07 2932.82l0 250.58 -41.14 0 0 -250.58 41.14 0zm-20.1 -93.97c6.08,0 11.69,2.34 16.36,6.55 5.14,4.21 7.48,10.75 7.48,19.63 0,8.88 -2.34,15.43 -7.48,19.64 -4.68,4.21 -10.29,6.55 -16.36,6.55 -7.01,0 -12.62,-2.34 -17.29,-6.55 -4.68,-4.21 -7.01,-10.75 -7.01,-19.64 0,-8.87 2.34,-15.42 7.01,-19.63 4.67,-4.21 10.28,-6.55 17.29,-6.55z"/>
   <path id="_6" class="fil10" d="M2160.4 3057.64c0,21.04 -2.81,39.27 -8.42,55.64 -5.14,15.9 -13.09,29.45 -23.37,40.67 -9.82,11.22 -22.44,19.64 -36.94,25.25 -14.49,6.08 -30.39,8.88 -48.16,8.88 -16.36,0 -31.78,-2.81 -45.81,-8.88 -14.03,-5.61 -26.18,-14.03 -36.47,-25.25 -10.29,-11.22 -18.23,-24.77 -24.3,-40.67 -5.61,-16.36 -8.42,-34.6 -8.42,-55.64 0,-27.58 4.68,-50.95 14.03,-70.12 9.34,-19.17 22.9,-34.13 40.2,-43.94 17.3,-10.29 38.34,-15.43 62.18,-15.43 22.91,0 42.55,5.14 59.85,15.43 17.3,9.81 31.33,24.77 41.14,43.94 9.82,19.17 14.49,42.55 14.49,70.12zm-189.34 0c0,19.64 2.34,36.94 7.48,51.43 5.14,14.49 13.56,25.25 24.31,33.19 10.75,7.95 24.78,11.69 41.6,11.69 16.83,0 30.86,-3.74 41.61,-11.69 10.75,-7.94 18.7,-18.69 23.85,-33.19 5.14,-14.49 7.95,-31.79 7.95,-51.43 0,-20.1 -2.81,-36.93 -7.95,-50.95 -5.14,-14.03 -13.56,-24.78 -24.31,-32.73 -10.75,-7.48 -24.31,-11.22 -41.61,-11.22 -25.71,0 -43.94,8.42 -55.63,25.25 -11.69,16.83 -17.3,40.21 -17.3,69.66z"/>
   <path id="_7" class="fil10" d="M2343.2 2854.75c-2.81,10.74 -6.55,22.9 -10.75,35.53 -4.21,12.62 -9.35,25.72 -14.49,38.34 -5.14,12.62 -9.82,24.3 -14.96,35.53l-30.86 0c3.27,-11.69 6.08,-24.77 9.35,-38.33 2.81,-13.56 5.61,-26.65 7.95,-39.74 2.81,-13.56 5.14,-25.72 6.55,-36.46l43.94 0 3.27 5.14zm-86.49 0c-2.81,10.74 -6.55,22.9 -10.75,35.53 -4.21,12.62 -9.35,25.72 -14.49,38.34 -5.13,12.62 -9.81,24.3 -14.95,35.53l-29.92 0c2.34,-8.88 4.21,-18.23 6.55,-28.04 2.34,-9.82 4.21,-20.1 6.08,-30.39 2.34,-9.82 4.21,-19.64 5.61,-29.46 1.87,-9.82 3.27,-18.7 4.68,-26.64l43.94 0 3.27 5.14z"/>
   <path id="_8" class="fil10" d="M2382.47 3158.15c0,-11.69 2.81,-19.64 8.42,-24.3 5.6,-4.68 12.15,-7.01 20.1,-7.01 7.95,0 14.96,2.34 20.57,7.01 6.08,4.67 8.88,12.62 8.88,24.3 0,11.22 -2.81,19.17 -8.88,24.31 -5.61,5.14 -12.62,7.48 -20.57,7.48 -7.95,0 -14.49,-2.34 -20.1,-7.48 -5.61,-5.14 -8.42,-13.09 -8.42,-24.31zm0 -200.09c0,-11.68 2.81,-20.1 8.42,-24.77 5.6,-4.68 12.15,-7.01 20.1,-7.01 7.95,0 14.96,2.34 20.57,7.01 6.08,4.68 8.88,13.09 8.88,24.77 0,11.22 -2.81,19.17 -8.88,24.31 -5.61,5.14 -12.62,7.48 -20.57,7.48 -7.95,0 -14.49,-2.34 -20.1,-7.48 -5.61,-5.14 -8.42,-13.09 -8.42,-24.31z"/>
   <path id="_9" class="fil2 str8" d="M1035.11 3257.26c-19.17,-0.47 -35.53,-3.27 -49.55,-8.42 -13.56,-5.14 -24.31,-13.56 -31.79,-24.77 -7.48,-10.75 -11.22,-24.78 -11.22,-41.14l0 -68.72c0,-10.75 -2.34,-19.17 -6.55,-25.25 -4.21,-6.55 -10.75,-11.22 -19.16,-14.03 -8.42,-3.27 -18.7,-4.68 -31.33,-4.68l0 -34.12c12.62,-0.47 22.91,-1.87 31.33,-4.68 8.41,-2.81 14.95,-7.48 19.16,-13.56 4.21,-6.55 6.55,-14.96 6.55,-25.25l0 -69.19c0,-16.36 3.74,-30.39 11.69,-41.14 7.95,-10.75 18.7,-19.17 32.73,-24.78 14.03,-5.13 29.91,-7.94 48.15,-7.94l0 33.65c-10.75,0.47 -19.64,1.87 -27.58,5.14 -7.95,3.27 -14.03,7.95 -18.23,14.03 -4.21,6.08 -6.08,14.49 -6.08,24.78l0 67.32c0,15.9 -4.21,28.52 -12.62,37.87 -8.42,9.82 -21.04,15.89 -38.34,19.16l0 2.81c17.3,3.27 30.39,9.35 38.34,18.7 8.42,9.82 12.62,22.44 12.62,38.34l0 68.72c0,9.82 1.87,18.23 6.08,24.31 4.21,6.55 9.82,11.22 17.77,14.03 7.94,3.27 17.29,4.68 28.04,5.14l0 33.65z"/>
   <path id="_10" class="fil2 str8" d="M1212.3 2854.75c-2.81,10.74 -6.55,22.9 -10.75,35.53 -4.21,12.62 -9.35,25.72 -14.49,38.34 -5.14,12.62 -9.82,24.3 -14.96,35.53l-30.86 0c3.27,-11.69 6.08,-24.77 9.35,-38.33 2.81,-13.56 5.61,-26.65 7.95,-39.74 2.81,-13.56 5.14,-25.72 6.55,-36.46l43.94 0 3.27 5.14zm-86.49 0c-2.81,10.74 -6.55,22.9 -10.75,35.53 -4.21,12.62 -9.35,25.72 -14.49,38.34 -5.13,12.62 -9.81,24.3 -14.95,35.53l-29.92 0c2.34,-8.88 4.21,-18.23 6.55,-28.04 2.34,-9.82 4.21,-20.1 6.08,-30.39 2.34,-9.82 4.21,-19.64 5.61,-29.46 1.87,-9.82 3.27,-18.7 4.68,-26.64l43.94 0 3.27 5.14z"/>
   <path id="_11" class="fil2 str8" d="M1373.12 2964.6l-63.11 0 0 218.8 -41.14 0 0 -218.8 -43.94 0 0 -19.16 43.94 -14.03 0 -14.49c0,-21.51 3.27,-38.81 9.35,-52.37 6.55,-13.55 15.9,-23.37 28.05,-29.45 12.16,-6.08 26.65,-9.35 43.95,-9.35 9.81,0 19.16,0.94 27.11,2.81 8.42,1.4 15.43,3.27 21.51,5.61l-10.75 32.25c-5.14,-1.4 -10.75,-3.27 -17.3,-4.68 -6.55,-1.4 -13.08,-2.34 -20.1,-2.34 -13.56,0 -23.85,4.68 -30.39,13.56 -7.01,9.35 -10.29,23.85 -10.29,43.48l0 16.36 63.11 0 0 31.78z"/>
   <path id="_12" class="fil2 str8" d="M1636.32 3057.64c0,21.04 -2.81,39.27 -8.42,55.64 -5.14,15.9 -13.09,29.45 -23.37,40.67 -9.82,11.22 -22.44,19.64 -36.94,25.25 -14.49,6.08 -30.39,8.88 -48.16,8.88 -16.36,0 -31.78,-2.81 -45.81,-8.88 -14.03,-5.61 -26.18,-14.03 -36.47,-25.25 -10.29,-11.22 -18.23,-24.77 -24.3,-40.67 -5.61,-16.36 -8.42,-34.6 -8.42,-55.64 0,-27.58 4.68,-50.95 14.03,-70.12 9.34,-19.17 22.9,-34.13 40.2,-43.94 17.3,-10.29 38.34,-15.43 62.18,-15.43 22.91,0 42.55,5.14 59.85,15.43 17.3,9.81 31.33,24.77 41.14,43.94 9.82,19.17 14.49,42.55 14.49,70.12zm-189.34 0c0,19.64 2.34,36.94 7.48,51.43 5.14,14.49 13.56,25.25 24.31,33.19 10.75,7.95 24.78,11.69 41.6,11.69 16.83,0 30.86,-3.74 41.61,-11.69 10.75,-7.94 18.7,-18.69 23.85,-33.19 5.14,-14.49 7.95,-31.79 7.95,-51.43 0,-20.1 -2.81,-36.93 -7.95,-50.95 -5.14,-14.03 -13.56,-24.78 -24.31,-32.73 -10.75,-7.48 -24.31,-11.22 -41.61,-11.22 -25.71,0 -43.94,8.42 -55.63,25.25 -11.69,16.83 -17.3,40.21 -17.3,69.66z"/>
   <polygon id="_13" class="fil2 str8" points="1742.45,3183.4 1701.31,3183.4 1701.31,2828.1 1742.45,2828.1 "/>
   <path id="_14" class="fil2 str8" d="M1863.07 2932.82l0 250.58 -41.14 0 0 -250.58 41.14 0zm-20.1 -93.97c6.08,0 11.69,2.34 16.36,6.55 5.14,4.21 7.48,10.75 7.48,19.63 0,8.88 -2.34,15.43 -7.48,19.64 -4.68,4.21 -10.29,6.55 -16.36,6.55 -7.01,0 -12.62,-2.34 -17.29,-6.55 -4.68,-4.21 -7.01,-10.75 -7.01,-19.64 0,-8.87 2.34,-15.42 7.01,-19.63 4.67,-4.21 10.28,-6.55 17.29,-6.55z"/>
   <path id="_15" class="fil2 str8" d="M2160.4 3057.64c0,21.04 -2.81,39.27 -8.42,55.64 -5.14,15.9 -13.09,29.45 -23.37,40.67 -9.82,11.22 -22.44,19.64 -36.94,25.25 -14.49,6.08 -30.39,8.88 -48.16,8.88 -16.36,0 -31.78,-2.81 -45.81,-8.88 -14.03,-5.61 -26.18,-14.03 -36.47,-25.25 -10.29,-11.22 -18.23,-24.77 -24.3,-40.67 -5.61,-16.36 -8.42,-34.6 -8.42,-55.64 0,-27.58 4.68,-50.95 14.03,-70.12 9.34,-19.17 22.9,-34.13 40.2,-43.94 17.3,-10.29 38.34,-15.43 62.18,-15.43 22.91,0 42.55,5.14 59.85,15.43 17.3,9.81 31.33,24.77 41.14,43.94 9.82,19.17 14.49,42.55 14.49,70.12zm-189.34 0c0,19.64 2.34,36.94 7.48,51.43 5.14,14.49 13.56,25.25 24.31,33.19 10.75,7.95 24.78,11.69 41.6,11.69 16.83,0 30.86,-3.74 41.61,-11.69 10.75,-7.94 18.7,-18.69 23.85,-33.19 5.14,-14.49 7.95,-31.79 7.95,-51.43 0,-20.1 -2.81,-36.93 -7.95,-50.95 -5.14,-14.03 -13.56,-24.78 -24.31,-32.73 -10.75,-7.48 -24.31,-11.22 -41.61,-11.22 -25.71,0 -43.94,8.42 -55.63,25.25 -11.69,16.83 -17.3,40.21 -17.3,69.66z"/>
   <path id="_16" class="fil2 str8" d="M2343.2 2854.75c-2.81,10.74 -6.55,22.9 -10.75,35.53 -4.21,12.62 -9.35,25.72 -14.49,38.34 -5.14,12.62 -9.82,24.3 -14.96,35.53l-30.86 0c3.27,-11.69 6.08,-24.77 9.35,-38.33 2.81,-13.56 5.61,-26.65 7.95,-39.74 2.81,-13.56 5.14,-25.72 6.55,-36.46l43.94 0 3.27 5.14zm-86.49 0c-2.81,10.74 -6.55,22.9 -10.75,35.53 -4.21,12.62 -9.35,25.72 -14.49,38.34 -5.13,12.62 -9.81,24.3 -14.95,35.53l-29.92 0c2.34,-8.88 4.21,-18.23 6.55,-28.04 2.34,-9.82 4.21,-20.1 6.08,-30.39 2.34,-9.82 4.21,-19.64 5.61,-29.46 1.87,-9.82 3.27,-18.7 4.68,-26.64l43.94 0 3.27 5.14z"/>
   <path id="_17" class="fil2 str8" d="M2382.47 3158.15c0,-11.69 2.81,-19.64 8.42,-24.3 5.6,-4.68 12.15,-7.01 20.1,-7.01 7.95,0 14.96,2.34 20.57,7.01 6.08,4.67 8.88,12.62 8.88,24.3 0,11.22 -2.81,19.17 -8.88,24.31 -5.61,5.14 -12.62,7.48 -20.57,7.48 -7.95,0 -14.49,-2.34 -20.1,-7.48 -5.61,-5.14 -8.42,-13.09 -8.42,-24.31zm0 -200.09c0,-11.68 2.81,-20.1 8.42,-24.77 5.6,-4.68 12.15,-7.01 20.1,-7.01 7.95,0 14.96,2.34 20.57,7.01 6.08,4.68 8.88,13.09 8.88,24.77 0,11.22 -2.81,19.17 -8.88,24.31 -5.61,5.14 -12.62,7.48 -20.57,7.48 -7.95,0 -14.49,-2.34 -20.1,-7.48 -5.61,-5.14 -8.42,-13.09 -8.42,-24.31z"/>
   <path class="fil11 str4" d="M3813.86 1629.9l-1.78 219.96 -3225.22 0 1.93 -208.76c18.63,-334.08 329.43,-409.42 390.76,-398.18l2461.15 5.25c312.24,31.67 390.48,284.15 373.17,381.73z"/>
   <rect class="fil0 str0" x="2537.81" y="2952.41" width="1132.29" height="204.67"/>
   <rect class="fil0 str0" x="1004.44" y="3414.57" width="737.81" height="204.67"/>
   <path class="fil10" d="M1884.33 3659.36c10.75,-0.47 20.1,-1.87 27.59,-5.14 7.94,-3.27 13.55,-7.95 17.76,-14.49 4.21,-6.08 6.55,-14.49 6.55,-24.31l0 -67.79c0,-15.9 4.21,-28.52 12.62,-37.87 8.42,-9.82 21.04,-15.9 38.34,-19.17l0 -2.81c-17.3,-3.27 -29.92,-9.34 -38.34,-19.16 -8.42,-9.35 -12.62,-21.97 -12.62,-37.87l0 -68.25c0,-10.29 -1.87,-18.7 -6.08,-24.78 -4.21,-6.08 -9.82,-10.75 -17.29,-14.03 -7.95,-3.27 -17.3,-4.68 -28.52,-4.68l0 -33.65c19.17,0 35.99,2.81 49.55,7.94 13.56,5.61 24.31,14.03 31.79,24.78 7.48,10.75 11.22,24.78 11.22,41.61l0 68.25c0,10.75 2.34,19.17 6.55,25.72 4.21,6.08 10.75,10.75 19.17,14.03 8.87,2.81 19.16,4.21 31.32,4.21l0 34.12c-12.16,0 -22.44,1.4 -31.32,4.68 -8.42,2.81 -14.96,7.48 -19.17,13.56 -4.21,6.08 -6.55,14.49 -6.55,25.25l0 69.66c0,16.36 -3.74,30.39 -11.69,41.14 -7.95,10.74 -18.7,19.16 -32.73,24.3 -13.56,5.61 -29.91,8.42 -48.15,8.42l0 -33.65z"/>
   <path id="_1_17" class="fil2 str8" d="M1884.33 3659.36c10.75,-0.47 20.1,-1.87 27.59,-5.14 7.94,-3.27 13.55,-7.95 17.76,-14.49 4.21,-6.08 6.55,-14.49 6.55,-24.31l0 -67.79c0,-15.9 4.21,-28.52 12.62,-37.87 8.42,-9.82 21.04,-15.9 38.34,-19.17l0 -2.81c-17.3,-3.27 -29.92,-9.34 -38.34,-19.16 -8.42,-9.35 -12.62,-21.97 -12.62,-37.87l0 -68.25c0,-10.29 -1.87,-18.7 -6.08,-24.78 -4.21,-6.08 -9.82,-10.75 -17.29,-14.03 -7.95,-3.27 -17.3,-4.68 -28.52,-4.68l0 -33.65c19.17,0 35.99,2.81 49.55,7.94 13.56,5.61 24.31,14.03 31.79,24.78 7.48,10.75 11.22,24.78 11.22,41.61l0 68.25c0,10.75 2.34,19.17 6.55,25.72 4.21,6.08 10.75,10.75 19.17,14.03 8.87,2.81 19.16,4.21 31.32,4.21l0 34.12c-12.16,0 -22.44,1.4 -31.32,4.68 -8.42,2.81 -14.96,7.48 -19.17,13.56 -4.21,6.08 -6.55,14.49 -6.55,25.25l0 69.66c0,16.36 -3.74,30.39 -11.69,41.14 -7.95,10.74 -18.7,19.16 -32.73,24.3 -13.56,5.61 -29.91,8.42 -48.15,8.42l0 -33.65z"/>
   <ellipse class="fil7 str5" cx="966.39" cy="1583.11" rx="139.48" ry="147.53"/>
   <ellipse class="fil12 str9" cx="1302.54" cy="1596.29" rx="139.48" ry="147.53"/>
   <ellipse class="fil0 str0" cx="1648.58" cy="1609.48" rx="139.48" ry="147.53"/>
  </g>
  <polygon class="fil13" points="4844.13,3980.26 4844.13,3761.39 4884.69,3761.39 5017.18,3939.99 5147.63,3761.39 5188.19,3761.39 5188.19,3980.26 5161.05,3980.26 5161.05,3786.19 5030.31,3965.96 5005.51,3965.96 4871.26,3786.19 4871.26,3980.26 "/>
  <path id="_1_18" class="fil13" d="M5340.24 3984.93c-21.31,0 -38.82,-1.45 -52.53,-4.37 -13.71,-2.92 -24.51,-8.17 -32.4,-16.05 -7.88,-7.88 -13.13,-18.97 -16.34,-33.56 -2.92,-14.88 -4.38,-33.85 -4.38,-57.2l0 -5.84c0,-19.26 0.88,-35.6 2.63,-48.74 2.04,-13.13 5.25,-23.93 9.92,-32.11 4.67,-8.46 11.09,-14.59 18.97,-18.97 7.88,-4.37 18.09,-7.58 30.35,-9.04 11.97,-1.46 26.56,-2.34 43.78,-2.34l57.49 0c17.21,0 31.8,0.87 43.77,2.34 12.26,1.45 22.48,4.67 30.36,9.04 7.88,4.38 14.29,10.51 18.96,18.97 4.68,8.17 7.88,18.97 9.92,32.11 2.04,13.13 2.92,29.47 2.92,48.74l0 5.84c0,23.34 -1.45,42.31 -4.67,57.2 -3.21,14.59 -8.46,25.68 -16.34,33.56 -7.59,7.88 -18.39,13.13 -32.11,16.05 -13.71,2.92 -31.52,4.37 -52.82,4.37l-57.49 0zm0 -23.64l57.49 0c13.71,0 25.09,-0.58 34.43,-1.45 9.33,-0.87 16.93,-2.92 22.76,-6.13 5.84,-3.21 10.21,-7.88 13.42,-14.3 2.92,-6.42 4.96,-14.88 6.13,-25.68 1.17,-10.5 1.75,-23.93 1.75,-39.98l0 -5.84c0,-16.64 -0.58,-30.36 -1.75,-41.15 -1.17,-10.8 -3.21,-19.55 -6.13,-25.68 -3.21,-6.13 -7.58,-10.8 -13.42,-13.71 -5.84,-2.92 -13.43,-4.67 -22.76,-5.54 -9.34,-0.88 -20.72,-1.46 -34.43,-1.46l-57.49 0c-13.72,0 -25.1,0.58 -34.15,1.46 -9.33,0.87 -16.93,2.62 -22.76,5.54 -5.84,2.92 -10.22,7.58 -13.42,13.71 -3.21,6.13 -5.26,14.88 -6.42,25.68 -1.17,10.8 -1.75,24.51 -1.75,41.15l0 5.84c0,16.04 0.58,29.47 1.75,39.98 1.17,10.8 3.21,19.26 6.42,25.68 3.2,6.42 7.58,11.09 13.42,14.3 5.84,3.21 13.43,5.26 22.76,6.13 9.05,0.87 20.43,1.45 34.15,1.45z"/>
  <polygon id="_2_19" class="fil13" points="5644.71,3980.26 5644.71,3784.15 5535.27,3784.15 5535.27,3761.39 5781.58,3761.39 5781.58,3784.15 5672.14,3784.15 5672.14,3980.26 "/>
  <path id="_3_20" class="fil13" d="M5918.89 3984.93c-21.31,0 -38.82,-1.45 -52.53,-4.37 -13.71,-2.92 -24.51,-8.17 -32.4,-16.05 -7.88,-7.88 -13.13,-18.97 -16.34,-33.56 -2.92,-14.88 -4.38,-33.85 -4.38,-57.2l0 -5.84c0,-19.26 0.88,-35.6 2.63,-48.74 2.04,-13.13 5.25,-23.93 9.92,-32.11 4.67,-8.46 11.09,-14.59 18.97,-18.97 7.88,-4.37 18.09,-7.58 30.35,-9.04 11.97,-1.46 26.56,-2.34 43.78,-2.34l57.49 0c17.21,0 31.8,0.87 43.77,2.34 12.26,1.45 22.48,4.67 30.36,9.04 7.88,4.38 14.29,10.51 18.96,18.97 4.68,8.17 7.88,18.97 9.92,32.11 2.04,13.13 2.92,29.47 2.92,48.74l0 5.84c0,23.34 -1.45,42.31 -4.67,57.2 -3.21,14.59 -8.46,25.68 -16.34,33.56 -7.59,7.88 -18.39,13.13 -32.11,16.05 -13.71,2.92 -31.52,4.37 -52.82,4.37l-57.49 0zm0 -23.64l57.49 0c13.71,0 25.09,-0.58 34.43,-1.45 9.33,-0.87 16.93,-2.92 22.76,-6.13 5.84,-3.21 10.21,-7.88 13.42,-14.3 2.92,-6.42 4.96,-14.88 6.13,-25.68 1.17,-10.5 1.75,-23.93 1.75,-39.98l0 -5.84c0,-16.64 -0.58,-30.36 -1.75,-41.15 -1.17,-10.8 -3.21,-19.55 -6.13,-25.68 -3.21,-6.13 -7.58,-10.8 -13.42,-13.71 -5.84,-2.92 -13.43,-4.67 -22.76,-5.54 -9.34,-0.88 -20.72,-1.46 -34.43,-1.46l-57.49 0c-13.72,0 -25.1,0.58 -34.15,1.46 -9.33,0.87 -16.93,2.62 -22.76,5.54 -5.84,2.92 -10.22,7.58 -13.42,13.71 -3.21,6.13 -5.26,14.88 -6.42,25.68 -1.17,10.8 -1.75,24.51 -1.75,41.15l0 5.84c0,16.04 0.58,29.47 1.75,39.98 1.17,10.8 3.21,19.26 6.42,25.68 3.2,6.42 7.58,11.09 13.42,14.3 5.84,3.21 13.43,5.26 22.76,6.13 9.05,0.87 20.43,1.45 34.15,1.45z"/>
  <path id="_4_21" class="fil13" d="M6128.51 3761.39l146.5 0c21.3,0 38.52,0.87 51.65,2.92 13.13,2.04 22.76,5.26 29.48,9.64 6.71,4.67 11.38,11.08 13.71,19.26 2.62,7.88 3.79,18.1 3.79,30.64l0 5.55c0,11.38 -1.46,21.3 -4.09,29.47 -2.62,8.16 -7.88,14.88 -15.76,20.13 -7.58,4.96 -18.97,8.47 -34.15,10.51l47.57 90.76 -27.43 0 -46.4 -88.71c-2.04,0.29 -4.09,0.29 -6.13,0.29 -2.04,0 -4.09,0 -6.13,0l-125.49 0 0 88.43 -27.14 0 0 -218.87zm27.14 106.81l121.11 0c16.34,0 29.18,-0.58 38.52,-1.75 9.33,-1.17 16.05,-3.21 20.43,-5.84 4.38,-2.62 7.3,-6.71 8.47,-11.67 1.45,-4.96 2.04,-11.67 2.04,-19.55l0 -5.55c0,-9.05 -0.88,-16.34 -2.63,-21.3 -1.75,-5.26 -5.25,-9.05 -10.21,-11.68 -5.26,-2.62 -12.84,-4.08 -23.06,-4.67 -10.22,-0.87 -23.64,-1.17 -40.56,-1.17l-114.11 0 0 83.17z"/>
  <polygon id="_5_22" class="fil13" points="6582.11,3907.31 6582.11,3884.54 6691.55,3884.54 6691.55,3907.31 "/>
  <path id="_6_23" class="fil13" d="M6801.62 3980.26l127.82 -218.87 36.48 0 127.53 218.87 -31.81 0 -27.43 -50.19 -173.35 0 -27.14 50.19 -32.1 0zm72.96 -72.96l145.92 0 -72.96 -127.82 -72.96 127.82z"/>
  <path id="_7_24" class="fil13" d="M7130.66 3980.26l0 -218.87 146.5 0c21.3,0 38.52,1.17 51.65,3.21 13.13,2.04 22.76,5.54 29.48,10.5 6.71,4.96 11.38,11.39 13.71,19.84 2.62,8.17 3.79,18.39 3.79,30.94l0 5.54c0,11.97 -1.17,21.89 -3.79,30.06 -2.34,8.17 -7,14.88 -14.01,19.84 -7,4.96 -16.93,8.75 -30.06,11.09 -13.13,2.33 -30.35,3.5 -51.66,3.5l-118.48 0 0 84.34 -27.14 0zm217.71 -154.38c0,-9.05 -0.88,-16.34 -2.63,-21.89 -1.75,-5.26 -5.25,-9.33 -10.21,-12.25 -5.26,-2.63 -12.84,-4.38 -23.06,-5.26 -10.22,-0.87 -23.64,-1.46 -40.56,-1.46l-114.11 0 0 87.26 114.11 0c16.93,0 30.35,-0.58 40.56,-1.75 10.22,-0.87 17.8,-2.92 23.06,-5.84 4.96,-2.92 8.46,-7 10.21,-12.55 1.75,-5.26 2.63,-12.26 2.63,-20.73l0 -5.54z"/>
  <polygon id="_8_25" class="fil13" points="7413.78,3980.26 7413.78,3761.39 7441.22,3761.39 7441.22,3980.26 "/>
  <polygon id="_9_26" class="fil13" points="7569.72,3907.31 7569.72,3884.54 7679.16,3884.54 7679.16,3907.31 "/>
  <path id="_10_27" class="fil13" d="M7808.2 3980.26l0 -218.87 162.26 0c21.3,0 39.1,1.17 52.82,3.79 13.71,2.63 24.51,7.59 32.4,14.88 7.58,7.3 12.84,18.1 16.04,32.11 3.21,14.29 4.68,32.69 4.68,55.74l0 5.84c0,22.47 -1.46,40.56 -4.68,54.57 -3.2,14 -8.46,24.8 -16.04,32.1 -7.89,7.58 -18.68,12.84 -32.4,15.76 -13.71,2.62 -31.52,4.09 -52.82,4.09l-162.26 0zm27.14 -23.64l135.12 0c17.21,0 30.93,-0.87 41.14,-2.34 10.22,-1.75 18.1,-5.25 23.64,-10.5 5.55,-5.55 9.05,-13.71 11.09,-24.81 1.75,-11.39 2.62,-26.27 2.62,-45.23l0 -5.84c0,-15.76 -0.58,-28.89 -1.45,-39.11 -1.17,-10.22 -3.21,-18.1 -6.42,-24.22 -3.2,-5.84 -7.58,-10.22 -13.42,-13.13 -5.84,-2.62 -13.43,-4.38 -22.76,-5.26 -9.34,-0.87 -20.72,-1.17 -34.43,-1.17l-135.12 0 0 171.6z"/>
  <polygon id="_11_28" class="fil13" points="8122.06,3980.26 8122.06,3761.39 8336.85,3761.39 8336.85,3784.15 8149.5,3784.15 8149.5,3857.1 8328.97,3857.1 8328.97,3879.87 8149.5,3879.87 8149.5,3957.5 8340.93,3957.5 8340.93,3980.26 "/>
  <polygon id="_12_29" class="fil13" points="8477.81,3980.26 8359.61,3761.39 8391.13,3761.39 8495.9,3961 8600.67,3761.39 8631.59,3761.39 8514.28,3980.26 "/>
  <polygon id="_13_30" class="fil13" points="8669.24,3980.26 8669.24,3761.39 8884.03,3761.39 8884.03,3784.15 8696.68,3784.15 8696.68,3857.1 8876.15,3857.1 8876.15,3879.87 8696.68,3879.87 8696.68,3957.5 8888.12,3957.5 8888.12,3980.26 "/>
  <polygon id="_14_31" class="fil13" points="8924.59,3980.26 8924.59,3761.39 8952.03,3761.39 8952.03,3957.5 9125.09,3957.5 9125.09,3980.26 "/>
  <path id="_15_32" class="fil13" d="M9258.3 3984.93c-21.31,0 -38.82,-1.45 -52.53,-4.37 -13.71,-2.92 -24.51,-8.17 -32.4,-16.05 -7.88,-7.88 -13.13,-18.97 -16.34,-33.56 -2.92,-14.88 -4.38,-33.85 -4.38,-57.2l0 -5.84c0,-19.26 0.88,-35.6 2.63,-48.74 2.04,-13.13 5.25,-23.93 9.92,-32.11 4.67,-8.46 11.09,-14.59 18.97,-18.97 7.88,-4.37 18.09,-7.58 30.35,-9.04 11.97,-1.46 26.56,-2.34 43.78,-2.34l57.49 0c17.21,0 31.8,0.87 43.77,2.34 12.26,1.45 22.48,4.67 30.36,9.04 7.88,4.38 14.29,10.51 18.96,18.97 4.68,8.17 7.88,18.97 9.92,32.11 2.04,13.13 2.92,29.47 2.92,48.74l0 5.84c0,23.34 -1.45,42.31 -4.67,57.2 -3.21,14.59 -8.46,25.68 -16.34,33.56 -7.59,7.88 -18.39,13.13 -32.11,16.05 -13.71,2.92 -31.52,4.37 -52.82,4.37l-57.49 0zm0 -23.64l57.49 0c13.71,0 25.09,-0.58 34.43,-1.45 9.33,-0.87 16.93,-2.92 22.76,-6.13 5.84,-3.21 10.21,-7.88 13.42,-14.3 2.92,-6.42 4.96,-14.88 6.13,-25.68 1.17,-10.5 1.75,-23.93 1.75,-39.98l0 -5.84c0,-16.64 -0.58,-30.36 -1.75,-41.15 -1.17,-10.8 -3.21,-19.55 -6.13,-25.68 -3.21,-6.13 -7.58,-10.8 -13.42,-13.71 -5.84,-2.92 -13.43,-4.67 -22.76,-5.54 -9.34,-0.88 -20.72,-1.46 -34.43,-1.46l-57.49 0c-13.72,0 -25.1,0.58 -34.15,1.46 -9.33,0.87 -16.93,2.62 -22.76,5.54 -5.84,2.92 -10.22,7.58 -13.42,13.71 -3.21,6.13 -5.26,14.88 -6.42,25.68 -1.17,10.8 -1.75,24.51 -1.75,41.15l0 5.84c0,16.04 0.58,29.47 1.75,39.98 1.17,10.8 3.21,19.26 6.42,25.68 3.2,6.42 7.58,11.09 13.42,14.3 5.84,3.21 13.43,5.26 22.76,6.13 9.05,0.87 20.43,1.45 34.15,1.45z"/>
  <path id="_16_33" class="fil13" d="M9467.93 3980.26l0 -218.87 146.5 0c21.3,0 38.52,1.17 51.65,3.21 13.13,2.04 22.76,5.54 29.48,10.5 6.71,4.96 11.38,11.39 13.71,19.84 2.62,8.17 3.79,18.39 3.79,30.94l0 5.54c0,11.97 -1.17,21.89 -3.79,30.06 -2.34,8.17 -7,14.88 -14.01,19.84 -7,4.96 -16.93,8.75 -30.06,11.09 -13.13,2.33 -30.35,3.5 -51.66,3.5l-118.48 0 0 84.34 -27.14 0zm217.71 -154.38c0,-9.05 -0.88,-16.34 -2.63,-21.89 -1.75,-5.26 -5.25,-9.33 -10.21,-12.25 -5.26,-2.63 -12.84,-4.38 -23.06,-5.26 -10.22,-0.87 -23.64,-1.46 -40.56,-1.46l-114.11 0 0 87.26 114.11 0c16.93,0 30.35,-0.58 40.56,-1.75 10.22,-0.87 17.8,-2.92 23.06,-5.84 4.96,-2.92 8.46,-7 10.21,-12.55 1.75,-5.26 2.63,-12.26 2.63,-20.73l0 -5.54z"/>
  <polygon id="_17_34" class="fil13" points="9751.05,3980.26 9751.05,3761.39 9965.84,3761.39 9965.84,3784.15 9778.49,3784.15 9778.49,3857.1 9957.96,3857.1 9957.96,3879.87 9778.49,3879.87 9778.49,3957.5 9969.92,3957.5 9969.92,3980.26 "/>
  <path id="_18" class="fil13" d="M10006.99 3761.39l146.5 0c21.3,0 38.52,0.87 51.65,2.92 13.13,2.04 22.76,5.26 29.48,9.64 6.71,4.67 11.38,11.08 13.71,19.26 2.62,7.88 3.79,18.1 3.79,30.64l0 5.55c0,11.38 -1.46,21.3 -4.09,29.47 -2.62,8.16 -7.88,14.88 -15.76,20.13 -7.58,4.96 -18.97,8.47 -34.15,10.51l47.57 90.76 -27.43 0 -46.4 -88.71c-2.04,0.29 -4.09,0.29 -6.13,0.29 -2.04,0 -4.09,0 -6.13,0l-125.49 0 0 88.43 -27.14 0 0 -218.87zm27.14 106.81l121.11 0c16.34,0 29.18,-0.58 38.52,-1.75 9.33,-1.17 16.05,-3.21 20.43,-5.84 4.38,-2.62 7.3,-6.71 8.47,-11.67 1.45,-4.96 2.04,-11.67 2.04,-19.55l0 -5.55c0,-9.05 -0.88,-16.34 -2.63,-21.3 -1.75,-5.26 -5.25,-9.05 -10.21,-11.68 -5.26,-2.62 -12.84,-4.08 -23.06,-4.67 -10.22,-0.87 -23.64,-1.17 -40.56,-1.17l-114.11 0 0 83.17z"/>
 </g>
</svg>
